<svg xmlns="http://www.w3.org/2000/svg" viewBox="0 0 256 257"><defs><linearGradient id="a" x1="33.36" x2="81.33" y1="18.81" y2="222.81" gradientUnits="userSpaceOnUse"><stop offset="0" stop-color="#41d1ff"/><stop offset="1" stop-color="#bd34fe"/></linearGradient><linearGradient id="b" x1="84.1" x2="91.76" y1="19.85" y2="231.92" gradientUnits="userSpaceOnUse"><stop offset="0" stop-color="#ffea83"/><stop offset="0.08" stop-color="#ffdd35"/><stop offset="1" stop-color="#ffa800"/></linearGradient></defs><path fill="url(#a)" d="m255.15 37.9-120 214.61a14 14 0 0 1-24.25-.3L.61 37.9A14 14 0 0 1 12.67 17.5h230.66a14 14 0 0 1 11.82 20.4Z"/><path fill="url(#b)" d="M185.4 1.08 96.19 17.86a7 7 0 0 0-5.73 5.14L61.2 151.34a7 7 0 0 0 8.65 8.37l30.77-7.66c5.4-1.34 10.3 3.38 9.11 8.82l-7.27 33.38c-1.23 5.64 4.23 10.53 9.57 8.61l19-6.98a7 7 0 0 0 4.43-4.44L210.34 7.05c1.52-5.03-2.82-9.86-7.94-8.97Z"/></svg>
